<svg xmlns="http://www.w3.org/2000/svg" width="512" height="512" viewBox="0 0 512 512" version="1.1">
	<path d="M 339 52.065 C 334.325 52.576, 320.150 54.120, 307.500 55.495 C 268.131 59.776, 244.508 63.934, 233.750 68.475 C 232.745 68.899, 232 68.780, 232 68.195 C 232 67.635, 231.213 67.328, 230.250 67.512 C 229.287 67.696, 228.500 67.916, 228.500 68 C 228.500 68.084, 227.713 68.344, 226.750 68.577 C 223.877 69.272, 222.672 69.661, 219 71.082 C 217.075 71.826, 215.204 72.351, 214.841 72.248 C 214.479 72.145, 210.527 73.847, 206.060 76.030 C 197.832 80.051, 195.380 80.813, 196.500 79 C 197.275 77.747, 196.795 77.747, 193.490 79.004 C 191.447 79.781, 190.357 79.640, 188.675 78.381 C 186.675 76.885, 186.661 76.804, 188.500 77.379 C 190.486 78, 190.486 77.994, 188.529 76.480 C 187.444 75.642, 185.982 75.177, 185.279 75.447 C 184.575 75.716, 184 75.302, 184 74.525 C 184 73.749, 183.026 72.431, 181.836 71.597 C 179.887 70.232, 179.382 70.252, 176.771 71.791 C 175.177 72.731, 172.592 74.905, 171.027 76.623 C 167.849 80.113, 164.529 85.992, 165.724 86.015 C 166.151 86.024, 165.993 86.361, 165.374 86.765 C 164.465 87.358, 103.733 253.166, 70.238 346.500 C 61.008 372.219, 60.464 376.121, 64.815 385.418 C 70.524 397.619, 86.937 411.319, 105.360 419.261 C 113.402 422.729, 138.621 430, 142.603 430 C 143.901 430, 144.021 428.637, 143.428 420.566 C 143.047 415.377, 142.962 410.539, 143.238 409.816 C 143.612 408.835, 145.899 408.581, 152.224 408.819 L 160.708 409.139 161.388 422.011 C 161.762 429.091, 161.778 436.035, 161.425 437.442 C 160.801 439.928, 160.551 440, 152.514 440 C 147.093 440, 143.904 440.431, 143.256 441.250 C 142.327 442.424, 137.031 457.636, 136.628 460.284 C 136.527 460.953, 136.074 462.092, 135.622 462.817 C 133.658 465.962, 136.310 464.815, 142.056 460.033 L 148.253 454.876 150.840 459.925 C 152.262 462.702, 153.733 464.642, 154.109 464.237 C 155.459 462.780, 163 438.018, 163 435.043 C 163 431.376, 154.709 431.565, 230.500 433.502 C 310.010 435.535, 322.811 435.478, 332.297 433.052 C 343.243 430.252, 350.534 426.365, 357.990 419.352 C 365.488 412.300, 371.647 402.253, 375.371 391 C 377.764 383.766, 432.031 188.433, 438.157 165 C 443.313 145.276, 440.915 132.376, 430.364 123.090 C 426.190 119.416, 416.577 115.090, 415.338 116.328 C 415.046 116.621, 416.619 117.785, 418.835 118.916 C 422.955 121.018, 424.986 123, 423.019 123 C 422.415 123, 420.236 122.141, 418.178 121.091 C 415.084 119.513, 405.020 117, 401.791 117 C 400.541 117, 403.846 123.005, 407.237 126.897 C 411.484 131.771, 414.209 138.676, 414.185 144.500 C 414.163 150.012, 351.328 372.464, 347.884 379.223 C 345.070 384.745, 340.235 389.103, 332.295 393.276 C 328.397 395.324, 324.823 396.980, 324.354 396.956 C 323.884 396.931, 325.075 396.077, 327 395.057 C 335.133 390.747, 345.518 379.003, 347.390 372 C 347.758 370.625, 346.903 371.655, 345.490 374.289 C 344.078 376.923, 341.188 380.812, 339.069 382.931 C 334.785 387.215, 322.403 393.716, 317 394.518 L 313.500 395.038 317.253 393.570 C 326.643 389.899, 336.859 380.991, 341.087 372.790 C 343.897 367.339, 343.417 366.954, 340.168 372.054 C 336.213 378.263, 330.340 383.258, 322.721 386.895 C 314.391 390.870, 311.796 390.901, 319 386.939 C 322.025 385.275, 326.678 381.796, 329.339 379.207 C 333.898 374.773, 340.023 365.703, 339.946 363.500 C 339.927 362.950, 339.070 364.075, 338.041 366 C 334.302 372.998, 329.098 377.827, 320.841 381.960 C 316.401 384.182, 312.033 385.990, 311.134 385.978 C 310.235 385.966, 311.853 384.729, 314.730 383.228 C 317.606 381.728, 322.017 378.771, 324.531 376.657 C 329.215 372.720, 336.762 362.429, 335.725 361.392 C 335.408 361.074, 334.484 362.093, 333.674 363.657 C 331.201 368.428, 324.191 374.589, 317.551 377.826 C 308.952 382.019, 303.666 383.063, 311.109 379.098 C 319.044 374.872, 327.131 367.108, 330.833 360.163 C 332.575 356.894, 333.980 353.833, 333.956 353.360 C 333.931 352.887, 332.976 354.300, 331.833 356.500 C 327.832 364.199, 323.362 368.590, 315.292 372.751 C 305.882 377.603, 300.337 379.344, 307.871 375.081 C 316.126 370.411, 321.901 365.220, 326.138 358.665 C 328.262 355.379, 329.998 352.197, 329.996 351.595 C 329.994 350.993, 329.051 352.075, 327.900 354 C 322.869 362.416, 312.212 370.443, 303.500 372.379 C 301.180 372.894, 301.746 372.313, 306 369.813 C 313.290 365.528, 321.186 357.540, 324.399 351.200 C 327.737 344.612, 327.752 343.133, 324.421 349 C 323.016 351.475, 320.209 355.226, 318.183 357.335 C 314.619 361.045, 307.276 365.609, 306.354 364.687 C 306.105 364.439, 308.624 361.639, 311.951 358.465 C 317.308 353.355, 319.947 349.679, 316.910 351.556 C 316.310 351.926, 317.045 350.378, 318.543 348.115 C 320.040 345.852, 321.656 344, 322.133 344 C 322.610 344, 322.897 343.663, 322.771 343.250 C 322.646 342.837, 323.802 339.378, 325.342 335.563 C 328.173 328.547, 389.588 121.119, 395.045 100.142 C 398.967 85.067, 399.085 74.881, 395.430 67 C 392.382 60.430, 387.950 55.560, 382.500 52.795 L 378.500 50.766 381.250 53.688 C 386.198 58.945, 384.154 60.806, 377.982 56.663 C 376.067 55.377, 372.925 53.766, 371 53.083 C 366.366 51.437, 349.611 50.904, 339 52.065 M 410.473 115.956 C 410.798 116.482, 411.725 116.659, 412.532 116.349 C 414.599 115.556, 414.356 115, 411.941 115 C 410.809 115, 410.148 115.430, 410.473 115.956 M 389.079 131.583 C 389.127 132.748, 389.364 132.985, 389.683 132.188 C 389.972 131.466, 389.936 130.603, 389.604 130.271 C 389.272 129.939, 389.036 130.529, 389.079 131.583 M 389.079 147.583 C 389.127 148.748, 389.364 148.985, 389.683 148.188 C 389.972 147.466, 389.936 146.603, 389.604 146.271 C 389.272 145.939, 389.036 146.529, 389.079 147.583 M 384.079 148.583 C 384.127 149.748, 384.364 149.985, 384.683 149.188 C 384.972 148.466, 384.936 147.603, 384.604 147.271 C 384.272 146.939, 384.036 147.529, 384.079 148.583 M 384.079 164.583 C 384.127 165.748, 384.364 165.985, 384.683 165.188 C 384.972 164.466, 384.936 163.603, 384.604 163.271 C 384.272 162.939, 384.036 163.529, 384.079 164.583 M 379.079 165.583 C 379.127 166.748, 379.364 166.985, 379.683 166.188 C 379.972 165.466, 379.936 164.603, 379.604 164.271 C 379.272 163.939, 379.036 164.529, 379.079 165.583 M 382.079 171.583 C 382.127 172.748, 382.364 172.985, 382.683 172.188 C 382.972 171.466, 382.936 170.603, 382.604 170.271 C 382.272 169.939, 382.036 170.529, 382.079 171.583 M 382.079 185.583 C 382.127 186.748, 382.364 186.985, 382.683 186.188 C 382.972 185.466, 382.936 184.603, 382.604 184.271 C 382.272 183.939, 382.036 184.529, 382.079 185.583 M 377.079 188.583 C 377.127 189.748, 377.364 189.985, 377.683 189.188 C 377.972 188.466, 377.936 187.603, 377.604 187.271 C 377.272 186.939, 377.036 187.529, 377.079 188.583 M 384.079 194.583 C 384.127 195.748, 384.364 195.985, 384.683 195.188 C 384.972 194.466, 384.936 193.603, 384.604 193.271 C 384.272 192.939, 384.036 193.529, 384.079 194.583 M 382.079 201.583 C 382.127 202.748, 382.364 202.985, 382.683 202.188 C 382.972 201.466, 382.936 200.603, 382.604 200.271 C 382.272 199.939, 382.036 200.529, 382.079 201.583 M 319 349 C 318.411 350.100, 318.155 351, 318.430 351 C 318.705 351, 319.411 350.100, 320 349 C 320.589 347.900, 320.845 347, 320.570 347 C 320.295 347, 319.589 347.900, 319 349 M 336.624 357.539 C 335.659 360.053, 335.943 360.702, 337.122 358.675 C 337.706 357.671, 337.973 356.639, 337.715 356.382 C 337.458 356.124, 336.966 356.645, 336.624 357.539" stroke="none" fill="black" fill-rule="evenodd"/>
</svg>